<!-- Twitter Icon -->
<svg xmlns="http://www.w3.org/2000/svg" xmlns:xlink="http://www.w3.org/1999/xlink" width="92" height="71" viewBox="0 0 92 71">
  <defs>
    <style>
      .a {
        clip-path: url("#b");
      }
      .b {
        fill: #1da1f2;
      }
    </style>
    <clipPath id="b"><rect width="92" height="71"/></clipPath>
  </defs>
  <g id="a" class="a">
    <g transform="translate(-540.181 -569.849)"><path
      class="b"
      d="M567.114,636.231c32.318,0,49.992-25.536,49.992-47.681q0-1.088-.05-2.166a34.861,34.861,0,0,0,8.764-8.678,36.369,36.369,0,0,1-10.09,2.638,16.985,16.985,0,0,0,7.726-9.269,36.291,36.291,0,0,1-11.157,4.068,17.956,17.956,0,0,0-12.825-5.295c-9.7,0-17.571,7.5-17.571,16.756a15.991,15.991,0,0,0,.456,3.821,50.731,50.731,0,0,1-36.218-17.509,16.126,16.126,0,0,0-2.379,8.423,16.557,16.557,0,0,0,7.819,13.949,18.088,18.088,0,0,1-7.957-2.1c0,.07,0,.139,0,.214a16.984,16.984,0,0,0,14.1,16.427,18.369,18.369,0,0,1-7.935.288,17.5,17.5,0,0,0,16.414,11.639,36.347,36.347,0,0,1-21.823,7.173,37.405,37.405,0,0,1-4.191-.232,51.5,51.5,0,0,0,26.934,7.528"/></g>
  </g>
</svg>
