<svg xmlns="http://www.w3.org/2000/svg" xmlns:xlink="http://www.w3.org/1999/xlink" width="232" height="118" viewBox="0 0 232 118">
  <defs>
    <style>
      .cls-1 {
        clip-path: url(#clip-Trico_logo);
      }

      .cls-2 {
        fill: #0e0f17;
      }

      .cls-3 {
        fill: #edece7;
      }
    </style>
    <clipPath id="clip-Trico_logo">
      <rect width="232" height="118"/>
    </clipPath>
  </defs>
  <g id="Trico_logo" class="cls-1">
    <g id="Component_147_1" data-name="Component 147 – 1" transform="translate(3 11.5)">
      <g id="Group_467" data-name="Group 467" transform="translate(-84.5 -286)">
        <g id="Group_452" data-name="Group 452" transform="translate(-19 92)">
          <rect id="Rectangle_1552" data-name="Rectangle 1552" class="cls-2" width="64" height="23" rx="4" transform="translate(317 221) rotate(90)"/>
          <rect id="Rectangle_1555" data-name="Rectangle 1555" class="cls-2" width="64" height="23" rx="4" transform="translate(304 221) rotate(90)"/>
        </g>
        <rect id="Rectangle_1569" data-name="Rectangle 1569" class="cls-3" width="18" height="11" rx="4" transform="translate(286 335) rotate(90)"/>
      </g>
      <g id="Group_451" data-name="Group 451" transform="translate(-103.5 -194)">
        <rect id="Rectangle_1551" data-name="Rectangle 1551" class="cls-2" width="64" height="23" rx="4" transform="translate(261.5 221) rotate(90)"/>
        <rect id="Rectangle_1553" data-name="Rectangle 1553" class="cls-2" width="31" height="23" rx="4" transform="translate(239 262)"/>
        <rect id="Rectangle_1554" data-name="Rectangle 1554" class="cls-2" width="31" height="23" rx="4" transform="translate(239 221)"/>
      </g>
      <rect id="Rectangle_1548" data-name="Rectangle 1548" class="cls-2" width="64" height="23" rx="4" transform="translate(124 27) rotate(90)"/>
      <g id="Group_466" data-name="Group 466" transform="translate(-85 -286)">
        <g id="Group_449" data-name="Group 449" transform="translate(-27 92)">
          <rect id="Rectangle_1546" data-name="Rectangle 1546" class="cls-2" width="64" height="23" rx="4" transform="translate(112 194)"/>
          <rect id="Rectangle_1549" data-name="Rectangle 1549" class="cls-2" width="72" height="23" rx="4" transform="translate(155 213) rotate(90)"/>
        </g>
        <g id="Group_450" data-name="Group 450" transform="translate(-22 92)">
          <rect id="Rectangle_1547" data-name="Rectangle 1547" class="cls-2" width="31" height="23" rx="4" transform="translate(167 221)"/>
          <rect id="Rectangle_1550" data-name="Rectangle 1550" class="cls-2" width="64" height="23" rx="4" transform="translate(189 221) rotate(90)"/>
        </g>
      </g>
    </g>
  </g>
</svg>
